<svg width="1360" height="740" viewBox="0 0 1360 740" fill="none" xmlns="http://www.w3.org/2000/svg">
<path fill-rule="evenodd" clip-rule="evenodd" d="M579.225 488.266C607.306 531.604 652.482 566.694 659.082 617.811C666.498 675.247 658.239 741.108 617.693 786.205C577.071 831.386 509.092 844.184 447.996 852.589C393.243 860.121 342.648 836.792 288.117 831.541C227.397 825.694 135.401 871.045 108.338 819.88C75.532 757.858 159.369 689.078 176.132 619.825C183.358 589.968 187.852 558.891 178.455 530.194C155.24 459.296 38.8382 396.726 81.9547 332.211C120.968 273.836 218.625 354.214 288.86 364.997C325.454 370.615 360.185 375.964 396.975 380.578C436.385 385.52 480.187 373.472 513.527 393.172C548.038 413.564 557.932 455.404 579.225 488.266Z" fill="#FB929E"/>
<path fill-rule="evenodd" clip-rule="evenodd" d="M1163.91 483.067C1223.44 463.329 1268.53 405.006 1287.02 345.496C1304.48 289.279 1256.34 233.445 1259.67 174.826C1262.76 120.361 1319.77 72.7227 1305.47 20.2C1291.3 -31.8545 1235 -60.4216 1188.21 -87.6679C1144.19 -113.303 1093.42 -118.092 1044.24 -131.92C984.006 -148.857 914.009 -218.441 865.627 -178.369C810.028 -132.319 850.765 -39.5204 846.401 31.9412C844.259 67.0095 862.716 104.158 846.459 135.488C815.128 195.866 715.303 219.211 714.108 286.881C713.131 342.269 794.234 360.349 841.99 388.611C886.45 414.923 933.597 431.608 983.311 446.195C1043.23 463.776 1104.35 502.815 1163.91 483.067Z" fill="#FB929E"/>
<path fill-rule="evenodd" clip-rule="evenodd" d="M961.088 179.272C1015.97 184.181 1030.26 273.29 1080.47 297.619C1139.52 326.232 1236.57 268.528 1269.28 328.615C1301.9 388.518 1205.32 450.586 1201.48 519.87C1197.99 582.71 1267.56 638.777 1248.79 698.405C1230.65 755.997 1163.87 776.24 1112.63 801.996C1064.63 826.125 1013.7 836.167 961.088 843.01C902.404 850.643 836.602 878.57 786.778 844.381C736.736 810.042 721.277 736.632 713.805 673.325C707.534 620.2 739.697 572.583 748.475 519.87C755.442 478.032 746.844 435.194 760.126 395.161C775.106 350.013 798.115 309.07 829.657 275.185C867.76 234.252 907.402 174.47 961.088 179.272Z" fill="#FB929E"/>
<path fill-rule="evenodd" clip-rule="evenodd" d="M105.864 -4.34973C138.133 -44.2709 207.214 -9.35702 257.013 -22.715C294.201 -32.6902 320.432 -75.1792 358.95 -72.2377C397.474 -69.2959 418.267 -24.4439 453.198 -7.73328C495.629 12.5657 549.455 4.80052 584.817 35.8157C624.93 70.9973 647.084 122.133 660.006 173.652C675.82 236.704 705.512 312.634 667.331 364.804C628.676 417.621 546.643 412.804 481.003 418.237C430.688 422.402 384.233 387.1 334.035 392.39C268.608 399.284 212.971 473.574 150.214 453.092C91.6803 433.989 57.1158 361.457 52.2568 300.427C47.5009 240.693 114.947 199.107 125.304 140.222C133.85 91.6383 74.8993 33.9564 105.864 -4.34973Z" fill="#FB929E"/>
<path fill-rule="evenodd" clip-rule="evenodd" d="M1119.08 337.098C1126.91 474.27 1092.3 623.374 1019.65 708.444C951.618 788.107 850.902 736.959 763.489 753.471C699.655 765.529 641.642 794.333 577.039 792.052C488.338 788.92 383.815 828.66 319.265 737.786C254.893 647.164 273.083 494.062 274.045 365.5C274.951 244.588 275.086 116.448 324.631 21.1429C372.937 -71.7809 454.813 -110.37 533.807 -134.188C604.576 -155.526 674.36 -126.169 746.016 -105.91C827.083 -82.9911 914.258 -84.9664 978.737 -8.39674C1051.87 78.4422 1111.35 201.717 1119.08 337.098Z" fill="#FB929E"/>
</svg>
